<svg xmlns="http://www.w3.org/2000/svg" viewBox="0 0 310 110" fill="currentColor">
  <rect x="6" y="6" width="18" height="18" />
  <rect x="26" y="6" width="18" height="18" />
  <rect x="46" y="6" width="18" height="18" />
  <rect x="66" y="6" width="18" height="18" />
  <rect x="106" y="6" width="18" height="18" />
  <rect x="186" y="6" width="18" height="18" />
  <rect x="226" y="6" width="18" height="18" />
  <rect x="6" y="26" width="18" height="18" />
  <rect x="66" y="26" width="18" height="18" />
  <rect x="126" y="26" width="18" height="18" />
  <rect x="166" y="26" width="18" height="18" />
  <rect x="226" y="26" width="18" height="18" />
  <rect x="6" y="46" width="18" height="18" />
  <rect x="26" y="46" width="18" height="18" />
  <rect x="46" y="46" width="18" height="18" />
  <rect x="66" y="46" width="18" height="18" />
  <rect x="146" y="46" width="18" height="18" />
  <rect x="226" y="46" width="18" height="18" />
  <rect x="6" y="66" width="18" height="18" />
  <rect x="126" y="66" width="18" height="18" />
  <rect x="166" y="66" width="18" height="18" />
  <rect x="226" y="66" width="18" height="18" />
  <rect x="6" y="86" width="18" height="18" />
  <rect x="106" y="86" width="18" height="18" />
  <rect x="186" y="86" width="18" height="18" />
  <rect x="226" y="86" width="18" height="18" />
  <rect x="246" y="86" width="18" height="18" />
  <rect x="266" y="86" width="18" height="18" />
  <rect x="286" y="86" width="18" height="18" />
</svg>