<svg xmlns="http://www.w3.org/2000/svg" viewBox="0 0 310 110" fill="currentColor">
  <rect x="5" y="5" width="20" height="20" />
  <rect x="25" y="5" width="20" height="20" />
  <rect x="45" y="5" width="20" height="20" />
  <rect x="65" y="5" width="20" height="20" />
  <rect x="105" y="5" width="20" height="20" />
  <rect x="185" y="5" width="20" height="20" />
  <rect x="225" y="5" width="20" height="20" />
  <rect x="5" y="25" width="20" height="20" />
  <rect x="65" y="25" width="20" height="20" />
  <rect x="125" y="25" width="20" height="20" />
  <rect x="165" y="25" width="20" height="20" />
  <rect x="225" y="25" width="20" height="20" />
  <rect x="5" y="45" width="20" height="20" />
  <rect x="25" y="45" width="20" height="20" />
  <rect x="45" y="45" width="20" height="20" />
  <rect x="65" y="45" width="20" height="20" />
  <rect x="145" y="45" width="20" height="20" />
  <rect x="225" y="45" width="20" height="20" />
  <rect x="5" y="65" width="20" height="20" />
  <rect x="125" y="65" width="20" height="20" />
  <rect x="165" y="65" width="20" height="20" />
  <rect x="225" y="65" width="20" height="20" />
  <rect x="5" y="85" width="20" height="20" />
  <rect x="105" y="85" width="20" height="20" />
  <rect x="185" y="85" width="20" height="20" />
  <rect x="225" y="85" width="20" height="20" />
  <rect x="245" y="85" width="20" height="20" />
  <rect x="265" y="85" width="20" height="20" />
  <rect x="285" y="85" width="20" height="20" />
</svg>